<svg width="800" height="800" viewBox="0 0 800 800" color='white'  fill="none" xmlns="http://www.w3.org/2000/svg"> 
<path d="M566.667 111.261C517.637 82.899 460.713 66.6666 400 66.6666C215.905 66.6666 66.6667 215.905 66.6667 400C66.6667 453.323 79.1874 503.72 101.449 548.417C107.365 560.293 109.334 573.87 105.904 586.687L86.0504 660.89C77.4317 693.1 106.9 722.567 139.112 713.95L213.313 694.097C226.131 690.667 239.707 692.637 251.584 698.55C296.279 720.813 346.677 733.333 400 733.333C584.093 733.333 733.333 584.093 733.333 400C733.333 339.287 717.1 282.362 688.74 233.333" stroke="currentColor" stroke-width="50" stroke-linecap="round"/>
<path d="M266.667 400H266.967M399.7 400H400M533.033 400H533.333"  stroke-width="66.6667" 
stroke="currentColor" stroke-linecap="round" stroke-linejoin="round"/>
</svg>
