<svg width="600" height="734" viewBox="0 0 600 734" fill="none" color="black" xmlns="http://www.w3.org/2000/svg">
<path fill-rule="evenodd" clip-rule="evenodd" d="M600 233.667C600 178.438 555.23 133.667 500 133.667H233.333C178.105 133.667 133.333 178.438 133.333 233.667V633.666C133.333 688.896 178.105 733.666 233.333 733.666H500C555.23 733.666 600 688.896 600 633.666V233.667ZM533.333 233.667C533.333 215.257 518.41 200.333 500 200.333H233.333C214.924 200.333 200 215.257 200 233.667V633.666C200 652.076 214.924 667 233.333 667H500C518.41 667 533.333 652.076 533.333 633.666V233.667Z" fill="currentColor"/>
<path d="M100 67.0002H433.333C451.743 67.0002 466.667 52.0762 466.667 33.6668C466.667 15.2575 451.743 0.333496 433.333 0.333496H100C44.7717 0.333496 0 45.1052 0 100.333V567C0 585.41 14.924 600.333 33.3333 600.333C51.7427 600.333 66.6667 585.41 66.6667 567V100.333C66.6667 81.9242 81.5907 67.0002 100 67.0002Z" fill="currentColor"/>
</svg>
