<svg width="800" height="800" viewBox="0 0 800 800" fill="none" xmlns="http://www.w3.org/2000/svg">
<path d="M522.69 486.23C639.027 486.23 733.333 392.307 733.333 276.448C733.333 160.589 639.027 66.6667 522.69 66.6667C406.357 66.6667 312.05 160.589 312.05 276.448C312.05 330.113 336.543 369.143 336.543 369.143L81.8138 622.83C70.3834 634.213 54.3811 663.81 81.8138 691.13L111.205 720.403C122.635 730.16 151.373 743.82 174.887 720.403L209.177 686.253C243.468 720.403 282.657 700.89 297.353 681.373C321.846 647.223 292.454 613.073 292.454 613.073L302.251 603.317C349.277 650.15 390.427 622.83 405.123 603.317C429.617 569.167 405.123 535.017 405.123 535.017C395.327 515.5 375.733 515.5 400.223 491.11L429.617 461.837C453.13 481.35 501.463 486.23 522.69 486.23Z" stroke="#867EF8" stroke-width="50" stroke-linejoin="round"/>
<path opacity="0.5" d="M596.17 276.451C596.17 316.867 563.273 349.63 522.69 349.63C482.11 349.63 449.21 316.867 449.21 276.451C449.21 236.035 482.11 203.271 522.69 203.271C563.273 203.271 596.17 236.035 596.17 276.451Z" stroke="#867EF8" stroke-width="50"/>
</svg>
