<svg width="800" height="653" viewBox="0 0 800 653" fill="none" xmlns="http://www.w3.org/2000/svg"
color="black"
>
<path d="M95.0071 506.277H151.286V558.32C151.286 620.65 182.753 652.117 246.293 652.117H704.993C767.926 652.117 800 620.65 800 558.32V236.687C800 174.658 767.926 143.191 704.993 143.191H648.714V94.1756C648.714 31.8456 616.944 0.378418 554.004 0.378418H95.0071C31.77 0.378418 0 31.8456 0 94.1756V412.783C0 475.113 31.77 506.277 95.0071 506.277ZM95.9157 457.563C65.6586 457.563 48.7143 441.527 48.7143 410.06V96.8984C48.7143 65.4313 65.6586 49.0913 95.9157 49.0913H553.1C583.054 49.0913 599.997 65.4313 599.997 96.8984V143.191H246.293C182.753 143.191 151.286 174.357 151.286 236.687V457.563H95.9157ZM200 239.41C200 207.943 216.641 191.906 246.899 191.906H704.081C734.037 191.906 751.281 207.943 751.281 239.41V492.057L640.237 387.367C627.231 374.961 611.194 368.91 594.853 368.91C577.911 368.91 563.387 374.658 549.166 387.064L413.313 507.487L359.153 458.471C346.444 447.276 332.526 441.224 318.001 441.224C304.689 441.224 292.283 446.671 279.273 458.168L200 527.154V239.41ZM363.993 394.931C403.024 394.931 435.097 362.858 435.097 323.221C435.097 284.493 403.024 251.816 363.993 251.816C324.659 251.816 292.587 284.493 292.587 323.221C292.587 362.858 324.659 394.931 363.993 394.931Z" fill="currentColor"/>
</svg>
