<svg width="631" height="634" viewBox="0 0 631 634" color='white' fill="none" xmlns="http://www.w3.org/2000/svg">
<g filter="url(#filter0_d_16_10)">
<path d="M393.404 294.887L384.737 280.65C379.127 284.067 376.047 290.457 376.87 296.973C377.69 303.487 382.26 308.913 388.544 310.83L393.404 294.887ZM237.634 294.887L242.495 310.83C248.777 308.913 253.347 303.487 254.17 296.973C254.99 290.457 251.91 284.067 246.3 280.65L237.634 294.887ZM448.854 166.667C448.854 214.933 423.217 257.227 384.737 280.65L402.07 309.123C450.07 279.903 482.187 227.043 482.187 166.667H448.854ZM315.52 33.3333C389.157 33.3333 448.854 93.0287 448.854 166.667H482.187C482.187 74.6193 407.567 0 315.52 0V33.3333ZM182.186 166.667C182.186 93.0287 241.881 33.3333 315.52 33.3333V0C223.472 0 148.852 74.6193 148.852 166.667H182.186ZM246.3 280.65C207.822 257.227 182.186 214.933 182.186 166.667H148.852C148.852 227.043 180.968 279.903 228.968 309.123L246.3 280.65ZM232.773 278.943C127.548 311.03 48.3057 402.68 34.3683 514.673L67.4463 518.79C79.733 420.06 149.647 339.14 242.495 310.83L232.773 278.943ZM34.3683 514.673C30.6847 544.273 55.2053 566.667 82.1857 566.667V533.333C72.3473 533.333 66.583 525.73 67.4463 518.79L34.3683 514.673ZM82.1857 566.667H548.854V533.333H82.1857V566.667ZM548.854 566.667C575.834 566.667 600.354 544.273 596.67 514.673L563.59 518.79C564.454 525.73 558.69 533.333 548.854 533.333V566.667ZM596.67 514.673C582.734 402.68 503.49 311.03 398.264 278.943L388.544 310.83C481.39 339.14 551.304 420.06 563.59 518.79L596.67 514.673Z" fill="currentColor"/>
</g>
<defs>
<filter id="filter0_d_16_10" x="0.666668" y="0" width="629.705" height="633.333" filterUnits="userSpaceOnUse" color-interpolation-filters="sRGB">
<feFlood flood-opacity="0" result="BackgroundImageFix"/>
<feColorMatrix in="SourceAlpha" type="matrix" values="0 0 0 0 0 0 0 0 0 0 0 0 0 0 0 0 0 0 127 0" result="hardAlpha"/>
<feOffset dy="33.3333"/>
<feGaussianBlur stdDeviation="16.6667"/>
<feColorMatrix type="matrix" values="0 0 0 0 0 0 0 0 0 0 0 0 0 0 0 0 0 0 0.1 0"/>
<feBlend mode="normal" in2="BackgroundImageFix" result="effect1_dropShadow_16_10"/>
<feBlend mode="normal" in="SourceGraphic" in2="effect1_dropShadow_16_10" result="shape"/>
</filter>
</defs>
</svg>
