<svg width="800" height="800" viewBox="0 0 800 800" fill="none" xmlns="http://www.w3.org/2000/svg" color='white'>
<path d="M552.82 450.8C561.62 435.91 566.666 418.547 566.666 400C566.666 381.453 561.62 364.09 552.82 349.2L592.676 309.344C602.44 299.581 602.44 283.752 592.676 273.989C582.913 264.226 567.086 264.226 557.323 273.989L517.466 313.845C502.576 305.048 485.213 300 466.666 300C448.12 300 430.756 305.048 415.866 313.845L376.01 273.989C366.247 264.226 350.42 264.226 340.656 273.989C330.892 283.752 330.892 299.581 340.656 309.344L380.513 349.2C371.713 364.09 366.666 381.453 366.666 400C366.666 418.547 371.713 435.91 380.513 450.8L340.656 490.657C330.892 500.42 330.892 516.247 340.656 526.01C350.42 535.773 366.247 535.773 376.01 526.01L415.866 486.153C430.756 494.953 448.12 500 466.666 500C485.213 500 502.576 494.953 517.466 486.153L557.323 526.01C567.086 535.773 582.913 535.773 592.676 526.01C602.44 516.247 602.44 500.42 592.676 490.657L552.82 450.8ZM466.666 450C439.053 450 416.667 427.613 416.667 400C416.667 372.387 439.053 350 466.666 350C494.28 350 516.666 372.387 516.666 400C516.666 427.613 494.28 450 466.666 450Z" fill="currentColor"/>
<path d="M216.667 258.333C216.667 244.526 205.474 233.333 191.667 233.333C177.86 233.333 166.667 244.526 166.667 258.333V541.667C166.667 555.473 177.86 566.667 191.667 566.667C205.474 566.667 216.667 555.473 216.667 541.667V258.333Z" fill="currentColor"/>
<path d="M66.6665 258.333C66.6665 189.298 122.631 133.333 191.666 133.333H608.333C677.37 133.333 733.333 189.298 733.333 258.333V541.667C733.333 610.703 677.37 666.667 608.333 666.667H191.666C122.631 666.667 66.6665 610.703 66.6665 541.667V258.333ZM191.666 183.333C150.245 183.333 116.667 216.912 116.667 258.333V541.667C116.667 583.087 150.245 616.667 191.666 616.667H608.333C649.753 616.667 683.333 583.087 683.333 541.667V258.333C683.333 216.912 649.753 183.333 608.333 183.333H191.666Z" fill="currentColor"/>
</svg>
